<?xml version="1.0" encoding="UTF-8"?><svg id="b" xmlns="http://www.w3.org/2000/svg" width="498.35" height="500.06" viewBox="0 0 498.35 500.06"><defs><style>.d{fill:#8d2676;}.d,.e,.f{stroke-width:0px;}.e{fill:#ee342f;}.f{fill:#f3b01c;}</style></defs><g id="c"><path class="d" d="M187.54,141.78c19.72-11.39,41.26-16.78,62.5-16.76V0c-42.49-.04-85.56,10.76-125,33.53C5.47,102.56-35.5,255.46,33.54,375.03l108.25-62.5c-34.52-59.79-14.03-136.24,45.75-170.75Z"/><path class="e" d="M356.38,184.26h134.92C462.43,78.09,365.37,0,250.06,0v125c44.91,0,84.28,23.69,106.32,59.25Z"/><path class="f" d="M187.56,358.27c-19.72-11.39-35.16-27.34-45.77-45.74l-108.27,62.51c21.21,36.82,52.09,68.72,91.54,91.49,119.57,69.04,272.47,28.07,341.51-91.51l-108.25-62.5c-34.52,59.79-110.97,80.27-170.75,45.75Z"/><polygon class="e" points="498.35 312.13 498.35 92.13 307.83 202.13 498.35 312.13"/></g></svg>